# Exported from Wings 3D 1.4.1
mtllib torus.mtl
o torus3
#128 vertices, 128 faces
v 1.66421356 -4.9005938e-17 -5.1608023e-17
v 1.53753285 -0.63686696 -1.2611169e-17
v 1.17677670 -1.17677670 2.0448767e-17
v 0.63686696 -1.53753285 4.2538711e-17
v 1.0190369e-16 -1.66421356 5.0295667e-17
v -0.63686696 -1.53753285 4.2538711e-17
v -1.17677670 -1.17677670 2.0448767e-17
v -1.53753285 -0.63686696 -1.2611169e-17
v -1.66421356 -2.5281332e-16 -5.1608023e-17
v -1.53753285 0.63686696 -9.0604878e-17
v -1.17677670 1.17677670 -1.2366481e-16
v -0.63686696 1.53753285 -1.4575476e-16
v -3.0571107e-16 1.66421356 -1.5351171e-16
v 0.63686696 1.53753285 -1.4575476e-16
v 1.17677670 1.17677670 -1.2366481e-16
v 1.53753285 0.63686696 -9.0604878e-17
v 1.59099026 -3.8181487e-17 0.17677670
v 1.46988334 -0.60884561 0.17677670
v 1.12500000 -1.12500000 0.17677670
v 0.60884561 -1.46988334 0.17677670
v 9.7420056e-17 -1.59099026 0.17677670
v -0.60884561 -1.46988334 0.17677670
v -1.12500000 -1.12500000 0.17677670
v -1.46988334 -0.60884561 0.17677670
v -1.59099026 -2.3302160e-16 0.17677670
v -1.46988334 0.60884561 0.17677670
v -1.12500000 1.12500000 0.17677670
v -0.60884561 1.46988334 0.17677670
v -2.9226017e-16 1.59099026 0.17677670
v 0.60884561 1.46988334 0.17677670
v 1.12500000 1.12500000 0.17677670
v 1.46988334 0.60884561 0.17677670
v 1.41421356 -3.3697853e-17 0.25000000
v 1.30656296 -0.54119610 0.25000000
v 1.00000000 -1.00000000 0.25000000
v 0.54119610 -1.30656296 0.25000000
v 8.6595606e-17 -1.41421356 0.25000000
v -0.54119610 -1.30656296 0.25000000
v -1.00000000 -1.00000000 0.25000000
v -1.30656296 -0.54119610 0.25000000
v -1.41421356 -2.0688906e-16 0.25000000
v -1.30656296 0.54119610 0.25000000
v -1.00000000 1.00000000 0.25000000
v -0.54119610 1.30656296 0.25000000
v -2.5978682e-16 1.41421356 0.25000000
v 0.54119610 1.30656296 0.25000000
v 1.00000000 1.00000000 0.25000000
v 1.30656296 0.54119610 0.25000000
v 1.23743687 -3.8181487e-17 0.17677670
v 1.14324259 -0.47354659 0.17677670
v 0.87500000 -0.87500000 0.17677670
v 0.47354659 -1.14324259 0.17677670
v 7.5771155e-17 -1.23743687 0.17677670
v -0.47354659 -1.14324259 0.17677670
v -0.87500000 -0.87500000 0.17677670
v -1.14324259 -0.47354659 0.17677670
v -1.23743687 -1.8972380e-16 0.17677670
v -1.14324259 0.47354659 0.17677670
v -0.87500000 0.87500000 0.17677670
v -0.47354659 1.14324259 0.17677670
v -2.2731346e-16 1.23743687 0.17677670
v 0.47354659 1.14324259 0.17677670
v 0.87500000 0.87500000 0.17677670
v 1.14324259 0.47354659 0.17677670
v 1.16421356 -4.9005938e-17 -2.0991853e-17
v 1.07559308 -0.44552524 6.2886996e-18
v 0.82322330 -0.82322330 2.9416036e-17
v 0.44552524 -1.07559308 4.4869228e-17
v 7.1287521e-17 -1.16421356 5.0295667e-17
v -0.44552524 -1.07559308 4.4869228e-17
v -0.82322330 -0.82322330 2.9416036e-17
v -1.07559308 -0.44552524 6.2886996e-18
v -1.16421356 -1.9158098e-16 -2.0991853e-17
v -1.07559308 0.44552524 -4.8272407e-17
v -0.82322330 0.82322330 -7.1399743e-17
v -0.44552524 1.07559308 -8.6852935e-17
v -2.1386256e-16 1.16421356 -9.2279374e-17
v 0.44552524 1.07559308 -8.6852935e-17
v 0.82322330 0.82322330 -7.1399743e-17
v 1.07559308 0.44552524 -4.8272407e-17
v 1.23743687 -5.9830389e-17 -0.17677670
v 1.14324259 -0.47354659 -0.17677670
v 0.87500000 -0.87500000 -0.17677670
v 0.47354659 -1.14324259 -0.17677670
v 7.5771155e-17 -1.23743687 -0.17677670
v -0.47354659 -1.14324259 -0.17677670
v -0.87500000 -0.87500000 -0.17677670
v -1.14324259 -0.47354659 -0.17677670
v -1.23743687 -2.1137270e-16 -0.17677670
v -1.14324259 0.47354659 -0.17677670
v -0.87500000 0.87500000 -0.17677670
v -0.47354659 1.14324259 -0.17677670
v -2.2731346e-16 1.23743687 -0.17677670
v 0.47354659 1.14324259 -0.17677670
v 0.87500000 0.87500000 -0.17677670
v 1.14324259 0.47354659 -0.17677670
v 1.41421356 -6.4314023e-17 -0.25000000
v 1.30656296 -0.54119610 -0.25000000
v 1.00000000 -1.00000000 -0.25000000
v 0.54119610 -1.30656296 -0.25000000
v 8.6595606e-17 -1.41421356 -0.25000000
v -0.54119610 -1.30656296 -0.25000000
v -1.00000000 -1.00000000 -0.25000000
v -1.30656296 -0.54119610 -0.25000000
v -1.41421356 -2.3750523e-16 -0.25000000
v -1.30656296 0.54119610 -0.25000000
v -1.00000000 1.00000000 -0.25000000
v -0.54119610 1.30656296 -0.25000000
v -2.5978682e-16 1.41421356 -0.25000000
v 0.54119610 1.30656296 -0.25000000
v 1.00000000 1.00000000 -0.25000000
v 1.30656296 0.54119610 -0.25000000
v 1.59099026 -5.9830389e-17 -0.17677670
v 1.46988334 -0.60884561 -0.17677670
v 1.12500000 -1.12500000 -0.17677670
v 0.60884561 -1.46988334 -0.17677670
v 9.7420056e-17 -1.59099026 -0.17677670
v -0.60884561 -1.46988334 -0.17677670
v -1.12500000 -1.12500000 -0.17677670
v -1.46988334 -0.60884561 -0.17677670
v -1.59099026 -2.5467050e-16 -0.17677670
v -1.46988334 0.60884561 -0.17677670
v -1.12500000 1.12500000 -0.17677670
v -0.60884561 1.46988334 -0.17677670
v -2.9226017e-16 1.59099026 -0.17677670
v 0.60884561 1.46988334 -0.17677670
v 1.12500000 1.12500000 -0.17677670
v 1.46988334 0.60884561 -0.17677670
vn 1.00000000 1.7563662e-16 -4.8872799e-16
vn 0.92387953 -0.38268343 -5.6509174e-16
vn 0.70710678 -0.70710678 -6.1090999e-16
vn 0.38268343 -0.92387953 -5.3454624e-16
vn 1.5272750e-17 -1.00000000 -4.7345525e-16
vn -0.38268343 -0.92387953 -5.1927349e-16
vn -0.70710678 -0.70710678 -5.3454624e-16
vn -0.92387953 -0.38268343 -5.3454624e-16
vn -1.00000000 -3.0545500e-17 -5.6509174e-16
vn -0.92387953 0.38268343 -5.9563724e-16
vn -0.70710678 0.70710678 -6.4145549e-16
vn -0.38268343 0.92387953 -5.8036449e-16
vn -1.8327300e-16 1.00000000 -4.7345525e-16
vn 0.38268343 0.92387953 -5.0400074e-16
vn 0.70710678 0.70710678 -5.4981899e-16
vn 0.92387953 0.38268343 -5.3454624e-16
vn 0.70509498 1.7443123e-16 0.70911288
vn 0.65142282 -0.26982817 0.70911288
vn 0.49857744 -0.49857744 0.70911288
vn 0.26982817 -0.65142282 0.70911288
vn 7.5839664e-18 -0.70509498 0.70911288
vn -0.26982817 -0.65142282 0.70911288
vn -0.49857744 -0.49857744 0.70911288
vn -0.65142282 -0.26982817 0.70911288
vn -0.70509498 1.1375950e-17 0.70911288
vn -0.65142282 0.26982817 0.70911288
vn -0.49857744 0.49857744 0.70911288
vn -0.26982817 0.65142282 0.70911288
vn -1.1375950e-16 0.70509498 0.70911288
vn 0.26982817 0.65142282 0.70911288
vn 0.49857744 0.49857744 0.70911288
vn 0.65142282 0.26982817 0.70911288
vn -1.5064665e-16 7.9089493e-17 1.00000000
vn -1.5064665e-16 1.0545266e-16 1.00000000
vn -7.5323327e-17 7.5323327e-17 1.00000000
vn -3.7661663e-18 1.8077598e-16 1.00000000
vn -1.1298499e-17 2.4103464e-16 1.00000000
vn -2.2596998e-17 9.0387992e-17 1.00000000
vn 0.0000000e+0 3.0129331e-17 1.00000000
vn 1.0545266e-16 7.1557160e-17 1.00000000
vn 1.6571132e-16 6.0258661e-17 1.00000000
vn 1.6571132e-16 -2.2596998e-17 1.00000000
vn 1.8077598e-16 -6.0258661e-17 1.00000000
vn 6.4024828e-17 -6.0258661e-17 1.00000000
vn -1.8830832e-17 -1.2051732e-16 1.00000000
vn -1.2804966e-16 -2.2596998e-16 1.00000000
vn -1.5064665e-16 -1.0545266e-16 1.00000000
vn -7.5323327e-17 3.0129331e-17 1.00000000
vn -0.70509498 -1.5167933e-17 0.70911288
vn -0.65142282 0.26982817 0.70911288
vn -0.49857744 0.49857744 0.70911288
vn -0.26982817 0.65142282 0.70911288
vn -7.5839664e-18 0.70509498 0.70911288
vn 0.26982817 0.65142282 0.70911288
vn 0.49857744 0.49857744 0.70911288
vn 0.65142282 0.26982817 0.70911288
vn 0.70509498 6.0671731e-17 0.70911288
vn 0.65142282 -0.26982817 0.70911288
vn 0.49857744 -0.49857744 0.70911288
vn 0.26982817 -0.65142282 0.70911288
vn 1.4409536e-16 -0.70509498 0.70911288
vn -0.26982817 -0.65142282 0.70911288
vn -0.49857744 -0.49857744 0.70911288
vn -0.65142282 -0.26982817 0.70911288
vn -1.00000000 -9.1636499e-17 5.9563724e-16
vn -0.92387953 0.38268343 5.9563724e-16
vn -0.70710678 0.70710678 5.3454624e-16
vn -0.38268343 0.92387953 5.4981899e-16
vn 0.0000000e+0 1.00000000 6.1090999e-16
vn 0.38268343 0.92387953 6.2618274e-16
vn 0.70710678 0.70710678 6.1090999e-16
vn 0.92387953 0.38268343 5.6509174e-16
vn 1.00000000 -7.6363749e-18 6.1090999e-16
vn 0.92387953 -0.38268343 6.2618274e-16
vn 0.70710678 -0.70710678 5.9563724e-16
vn 0.38268343 -0.92387953 6.1090999e-16
vn 2.5963675e-16 -1.00000000 6.4145549e-16
vn -0.38268343 -0.92387953 6.7200099e-16
vn -0.70710678 -0.70710678 6.4145549e-16
vn -0.92387953 -0.38268343 6.5672824e-16
vn -0.70509498 -9.8591563e-17 -0.70911288
vn -0.65142282 0.26982817 -0.70911288
vn -0.49857744 0.49857744 -0.70911288
vn -0.26982817 0.65142282 -0.70911288
vn -3.7919832e-18 0.70509498 -0.70911288
vn 0.26982817 0.65142282 -0.70911288
vn 0.49857744 0.49857744 -0.70911288
vn 0.65142282 0.26982817 -0.70911288
vn 0.70509498 -4.9295781e-17 -0.70911288
vn 0.65142282 -0.26982817 -0.70911288
vn 0.49857744 -0.49857744 -0.70911288
vn 0.26982817 -0.65142282 -0.70911288
vn 1.4030338e-16 -0.70509498 -0.70911288
vn -0.26982817 -0.65142282 -0.70911288
vn -0.49857744 -0.49857744 -0.70911288
vn -0.65142282 -0.26982817 -0.70911288
vn 1.6571132e-16 -4.5193996e-17 -1.00000000
vn 1.2051732e-16 -1.0545266e-16 -1.00000000
vn 1.5064665e-16 -1.9584065e-16 -1.00000000
vn 6.4024828e-17 -1.9584065e-16 -1.00000000
vn 3.7661663e-18 -1.5064665e-16 -1.00000000
vn -5.2726329e-17 -1.5064665e-16 -1.00000000
vn -1.3558199e-16 -1.7324365e-16 -1.00000000
vn -1.3558199e-16 -1.0168649e-16 -1.00000000
vn -7.5323327e-17 -6.7790994e-17 -1.00000000
vn -9.0387992e-17 7.5323327e-18 -1.00000000
vn -1.2804966e-16 9.0387992e-17 -1.00000000
vn -1.3558199e-16 1.3558199e-16 -1.00000000
vn -1.8830832e-17 4.5193996e-17 -1.00000000
vn 4.5193996e-17 -4.5193996e-17 -1.00000000
vn 1.2051732e-16 4.5193996e-17 -1.00000000
vn 2.2596998e-16 4.8960162e-17 -1.00000000
vn 0.70509498 6.0671731e-17 -0.70911288
vn 0.65142282 -0.26982817 -0.70911288
vn 0.49857744 -0.49857744 -0.70911288
vn 0.26982817 -0.65142282 -0.70911288
vn 1.5167933e-17 -0.70509498 -0.70911288
vn -0.26982817 -0.65142282 -0.70911288
vn -0.49857744 -0.49857744 -0.70911288
vn -0.65142282 -0.26982817 -0.70911288
vn -0.70509498 -6.0671731e-17 -0.70911288
vn -0.65142282 0.26982817 -0.70911288
vn -0.49857744 0.49857744 -0.70911288
vn -0.26982817 0.65142282 -0.70911288
vn -1.2892743e-16 0.70509498 -0.70911288
vn 0.26982817 0.65142282 -0.70911288
vn 0.49857744 0.49857744 -0.70911288
vn 0.65142282 0.26982817 -0.70911288
g torus3_default
usemtl default
s 1
f 1//1 17//17 18//18 2//2
f 1//1 113//113 128//128 16//16
f 2//2 18//18 19//19 3//3
f 2//2 114//114 113//113 1//1
f 3//3 19//19 20//20 4//4
f 3//3 115//115 114//114 2//2
f 4//4 20//20 21//21 5//5
f 4//4 116//116 115//115 3//3
f 5//5 21//21 22//22 6//6
f 5//5 117//117 116//116 4//4
f 6//6 22//22 23//23 7//7
f 6//6 118//118 117//117 5//5
f 7//7 23//23 24//24 8//8
f 7//7 119//119 118//118 6//6
f 8//8 24//24 25//25 9//9
f 8//8 120//120 119//119 7//7
f 9//9 25//25 26//26 10//10
f 9//9 121//121 120//120 8//8
f 10//10 26//26 27//27 11//11
f 10//10 122//122 121//121 9//9
f 11//11 27//27 28//28 12//12
f 11//11 123//123 122//122 10//10
f 12//12 28//28 29//29 13//13
f 12//12 124//124 123//123 11//11
f 13//13 29//29 30//30 14//14
f 13//13 125//125 124//124 12//12
f 14//14 30//30 31//31 15//15
f 14//14 126//126 125//125 13//13
f 15//15 31//31 32//32 16//16
f 15//15 127//127 126//126 14//14
f 16//16 32//32 17//17 1//1
f 16//16 128//128 127//127 15//15
f 17//17 33//33 34//34 18//18
f 18//18 34//34 35//35 19//19
f 19//19 35//35 36//36 20//20
f 20//20 36//36 37//37 21//21
f 21//21 37//37 38//38 22//22
f 22//22 38//38 39//39 23//23
f 23//23 39//39 40//40 24//24
f 24//24 40//40 41//41 25//25
f 25//25 41//41 42//42 26//26
f 26//26 42//42 43//43 27//27
f 27//27 43//43 44//44 28//28
f 28//28 44//44 45//45 29//29
f 29//29 45//45 46//46 30//30
f 30//30 46//46 47//47 31//31
f 31//31 47//47 48//48 32//32
f 32//32 48//48 33//33 17//17
f 33//33 49//49 50//50 34//34
f 34//34 50//50 51//51 35//35
f 35//35 51//51 52//52 36//36
f 36//36 52//52 53//53 37//37
f 37//37 53//53 54//54 38//38
f 38//38 54//54 55//55 39//39
f 39//39 55//55 56//56 40//40
f 40//40 56//56 57//57 41//41
f 41//41 57//57 58//58 42//42
f 42//42 58//58 59//59 43//43
f 43//43 59//59 60//60 44//44
f 44//44 60//60 61//61 45//45
f 45//45 61//61 62//62 46//46
f 46//46 62//62 63//63 47//47
f 47//47 63//63 64//64 48//48
f 48//48 64//64 49//49 33//33
f 49//49 65//65 66//66 50//50
f 50//50 66//66 67//67 51//51
f 51//51 67//67 68//68 52//52
f 52//52 68//68 69//69 53//53
f 53//53 69//69 70//70 54//54
f 54//54 70//70 71//71 55//55
f 55//55 71//71 72//72 56//56
f 56//56 72//72 73//73 57//57
f 57//57 73//73 74//74 58//58
f 58//58 74//74 75//75 59//59
f 59//59 75//75 76//76 60//60
f 60//60 76//76 77//77 61//61
f 61//61 77//77 78//78 62//62
f 62//62 78//78 79//79 63//63
f 63//63 79//79 80//80 64//64
f 64//64 80//80 65//65 49//49
f 65//65 81//81 82//82 66//66
f 66//66 82//82 83//83 67//67
f 67//67 83//83 84//84 68//68
f 68//68 84//84 85//85 69//69
f 69//69 85//85 86//86 70//70
f 70//70 86//86 87//87 71//71
f 71//71 87//87 88//88 72//72
f 72//72 88//88 89//89 73//73
f 73//73 89//89 90//90 74//74
f 74//74 90//90 91//91 75//75
f 75//75 91//91 92//92 76//76
f 76//76 92//92 93//93 77//77
f 77//77 93//93 94//94 78//78
f 78//78 94//94 95//95 79//79
f 79//79 95//95 96//96 80//80
f 80//80 96//96 81//81 65//65
f 81//81 97//97 98//98 82//82
f 82//82 98//98 99//99 83//83
f 83//83 99//99 100//100 84//84
f 84//84 100//100 101//101 85//85
f 85//85 101//101 102//102 86//86
f 86//86 102//102 103//103 87//87
f 87//87 103//103 104//104 88//88
f 88//88 104//104 105//105 89//89
f 89//89 105//105 106//106 90//90
f 90//90 106//106 107//107 91//91
f 91//91 107//107 108//108 92//92
f 92//92 108//108 109//109 93//93
f 93//93 109//109 110//110 94//94
f 94//94 110//110 111//111 95//95
f 95//95 111//111 112//112 96//96
f 96//96 112//112 97//97 81//81
f 97//97 113//113 114//114 98//98
f 98//98 114//114 115//115 99//99
f 99//99 115//115 116//116 100//100
f 100//100 116//116 117//117 101//101
f 101//101 117//117 118//118 102//102
f 102//102 118//118 119//119 103//103
f 103//103 119//119 120//120 104//104
f 104//104 120//120 121//121 105//105
f 105//105 121//121 122//122 106//106
f 106//106 122//122 123//123 107//107
f 107//107 123//123 124//124 108//108
f 108//108 124//124 125//125 109//109
f 109//109 125//125 126//126 110//110
f 110//110 126//126 127//127 111//111
f 111//111 127//127 128//128 112//112
f 112//112 128//128 113//113 97//97
